<svg enable-background="new 0 0 500 500" viewBox="0 0 500 500" xmlns="http://www.w3.org/2000/svg"><path d="m0 0h500v500h-500z" fill="#fff"/><path d="m250 387c-.6 0-1.1 0-1.7-.1-5.6-.4-11-2.7-15.3-7l-125-125c-4.7-4.7-7-10.8-7-17s2.3-12.3 7-17c9.4-9.4 24.6-9.4 33.9 0l84.3 84.3.9-235.5c.1-13.2 10.8-23.9 24-23.9h.1c13.3.1 24 10.8 23.9 24.1l-.9 234.9 83.8-83.8c9.4-9.4 24.6-9.4 33.9 0 9.4 9.4 9.4 24.6 0 33.9l-124.8 124.9c-.4.4-.8.8-1.3 1.2-3.7 3.2-8.2 5.2-12.8 5.7-1 .2-2 .3-3 .3z" fill="#1d1d1b"/><path d="m388.8 449.2h-277.6c-42.3 0-76.7-34.4-76.7-76.7v-76.7h38v76.7c0 21.3 17.4 38.7 38.7 38.7h277.6c21.3 0 38.7-17.4 38.7-38.7v-76.7h38v76.7c0 42.3-34.4 76.7-76.7 76.7z" fill="#1d71b8"/></svg>