<svg enable-background="new 0 0 256 256" viewBox="0 0 256 256" xmlns="http://www.w3.org/2000/svg"><g fill="#1d1d1b"><path d="m204.3 242.7h-152.6c-4.1 0-7.5-3.4-7.5-7.5v-128.1c0-4.1 3.4-7.5 7.5-7.5h50.1c4.1 0 7.5 3.4 7.5 7.5s-3.4 7.5-7.5 7.5h-42.6v113.2h137.6v-113.2h-42.6c-4.1 0-7.5-3.4-7.5-7.5s3.4-7.5 7.5-7.5h50.1c4.1 0 7.5 3.4 7.5 7.5v128.2c0 4.1-3.4 7.4-7.5 7.4z"/><path d="m128 178.3c-4.1 0-7.5-3.4-7.5-7.5v-132.7l-35.2 35.2c-2.9 2.9-7.7 2.9-10.6 0s-2.9-7.7 0-10.6l47.9-47.9c.1-.1.3-.3.4-.4 1.2-1 2.6-1.6 4-1.8.5-.1 1-.1 1.4 0 1.7.1 3.5.8 4.8 2.2l48 48c1.5 1.5 2.2 3.4 2.2 5.3s-.7 3.8-2.2 5.3c-2.9 2.9-7.7 2.9-10.6 0l-35.2-35.2v132.7c.1 4-3.3 7.4-7.4 7.4z"/></g></svg>