<svg enable-background="new 0 0 256 256" viewBox="0 0 256 256"
  xmlns="http://www.w3.org/2000/svg">
  <path d="m128 235.3c-59.2 0-107.3-48.2-107.3-107.3-0-59.2 48.1-107.3 107.3-107.3s107.3 48.2 107.3 107.3c0 59.2-48.1 107.3-107.3 107.3zm0-202.6c-52.6 0-95.3 42.8-95.3 95.3s42.8 95.3 95.3 95.3 95.3-42.8 95.3-95.3-42.7-95.3-95.3-95.3z"/>
    <ellipse cx="96.2" cy="96.1" rx="18.3" ry="27"/>
  <ellipse cx="159.8" cy="96.1" rx="18.3" ry="27"/>
  <path d="m128.5 188.8c-38.6 0-55.2-28.9-55.9-30.2-1.6-2.9-.6-6.5 2.3-8.2 2.9-1.6 6.5-.6 8.2 2.3.6 1 14.1 24.1 45.4 24.1 31.2 0 43.8-22.9 44.3-23.9 1.6-2.9 5.2-4 8.1-2.5s4.1 5.1 2.5 8.1c-.6 1.2-16.2 30.3-54.9 30.3z"/>
</svg>
