<svg enable-background="new 0 0 256 256" viewBox="0 0 256 256"
  xmlns="http://www.w3.org/2000/svg">
  <g fill="#1d1d1b">
    <path d="m233.6 26.4h-167.2c-4.1 0-7.5 3.4-7.5 7.5v38.3h-36.5c-4.1 0-7.5 3.4-7.5 7.5v140.5c0 4.1 3.4 7.5 7.5 7.5h167.2c4.1 0 7.5-3.4 7.5-7.5v-38.2h36.6c4.1 0 7.5-3.4 7.5-7.5v-140.6c-.1-4.1-3.4-7.5-7.6-7.5zm-51.5 186.4h-152.2v-125.5h29.1v87.2c0 4.1 3.4 7.5 7.5 7.5h115.7v30.8zm44-45.8h-29.1-15-108.1v-79.7-15-30.9h152.2z"/>
    <path d="m195.2 96.7h-37.7v-34c0-4.1-3.4-7.5-7.5-7.5s-7.5 3.4-7.5 7.5v34h-37.7c-4.1 0-7.5 3.4-7.5 7.5s3.4 7.5 7.5 7.5h37.7v34c0 4.1 3.4 7.5 7.5 7.5s7.5-3.4 7.5-7.5v-34h37.7c4.1 0 7.5-3.4 7.5-7.5s-3.3-7.5-7.5-7.5z"/>
  </g>
</svg>
